# xmcd
#
# Track frame offsets: 
#        150
#        18174
#        34377
#        60795
#        72500
#        95454
#        118539
#        136135
#        153689
#        170270
#        194657
#        209917
#
# Disc length: 3023 seconds
#
# Revision: 4
# Processed by: cddbd v1.5.2PL0 Copyright (c) Steve Scherf et al.
# Submitted via: ExactAudioCopy v1.1
#
DISCID=ab0bcd0c
DTITLE=The Jayhawks - Mockingbird Time
DYEAR=2011
DGENRE=Country
TTITLE0=Hide Your Colors
TTITLE1=Closer To Your Side
TTITLE2=Tiny Arrows
TTITLE3=She Walks In So Many Ways
TTITLE4=High Water Blues
TTITLE5=Mockingbird Time
TTITLE6=Stand Out In The Rain
TTITLE7=Cinnamon Love
TTITLE8=Guilder Annie
TTITLE9=Black-Eyed Susan
TTITLE10=Pouring Rain At Dawn
TTITLE11=Hey Mr. Man
EXTD=YEAR: 2011
EXTT0=
EXTT1=
EXTT2=
EXTT3=
EXTT4=
EXTT5=
EXTT6=
EXTT7=
EXTT8=
EXTT9=
EXTT10=
EXTT11=
PLAYORDER=
